# AST/ASF file generated using VICON BodyLanguage
# -----------------------------------------------
:version 1.10
:name VICON
:units
  mass 1.0
  length 0.45
  angle deg
:documentation
   .ast/.asf automatically generated from VICON data using
   VICON BodyBuilder and BodyLanguage model FoxedUp or BRILLIANT.MOD
:root
   order TX TY TZ RX RY RZ
   axis XYZ
   position 0 0 0  
   orientation 0 0 0 
:bonedata
  begin
     id 1 
     name lhipjoint
     direction 0.630082 -0.636569 0.44472 
     length 2.82754 
     axis 0 0 0  XYZ
  end
  begin
     id 2 
     name lfemur
     direction 0.34202 -0.939693 0  
     length 7.26371  
     axis 0 0 20  XYZ
    dof rx ry rz
    limits (-160.0 20.0)
           (-70.0 70.0)
           (-60.0 70.0)
  end
  begin
     id 3 
     name ltibia
     direction 0.34202 -0.939693 0   
     length 7.88616   
     axis 0 0 20   XYZ
    dof rx
    limits (-10.0 170.0)
  end
  begin
     id 4 
     name lfoot
     direction 0.0603448 -0.165796 0.984312   
     length 1.77861   
     axis -90 7.62852e-016 20   XYZ
    dof rx rz
    limits (-45.0 90.0)
           (-70.0 20.0)
  end
  begin
     id 5 
     name ltoes
     direction 1.53577e-011 -4.21876e-011 1   
     length 0.902235   
     axis -90 7.62852e-016 20   XYZ
    dof rx
    limits (-90.0 20.0)
  end
  begin
     id 6 
     name rhipjoint
     direction -0.656778 -0.61817 0.431866   
     length 2.9117  
     axis 0 0 0  XYZ 
  end
  begin
     id 7 
     name rfemur
     direction -0.34202 -0.939693 0   
     length 6.81603   
     axis 0 0 -20   XYZ
    dof rx ry rz
    limits (-160.0 20.0)
           (-70.0 70.0)
           (-70.0 60.0)
  end
  begin
     id 8 
     name rtibia
     direction -0.34202 -0.939693 0   
     length 8.05997   
     axis 0 0 -20   XYZ
    dof rx
    limits (-10.0 170.0)
 end
 begin
     id 9 
     name rfoot
     direction -0.0862404 -0.236944 0.967688   
     length 1.84899  
     axis -90 -7.62852e-016 -20   XYZ
    dof rx rz
    limits (-45.0 90.0)
           (-20.0 70.0)
  end
  begin
     id 10 
     name rtoes
     direction -1.53561e-011 -4.21798e-011 1   
     length 0.931579   
     axis -90 -7.62852e-016 -20   XYZ
    dof rx
    limits (-90.0 20.0)
  end
  begin
     id 11 
     name lowerback
     direction -0.0110203 0.991769 -0.127564   
     length 2.05686   
     axis 0 0 0   XYZ
    dof rx ry rz
    limits (-20.0 45.0)
           (-30.0 30.0)
           (-30.0 30.0)
  end
  begin
     id 12 
     name upperback
     direction 0.0109719 0.99993 -0.00432479   
     length 2.06234   
     axis 0 0 0   XYZ
    dof rx ry rz
    limits (-20.0 45.0)
           (-30.0 30.0)
           (-30.0 30.0)
  end
  begin
     id 13 
     name thorax
     direction 0.0173308 0.998351 0.0547306   
     length 2.09856   
     axis 0 0 0   XYZ
    dof rx ry rz
    limits (-20.0 45.0)
           (-30.0 30.0)
           (-30.0 30.0)
  end
  begin
     id 14 
     name lowerneck
     direction -0.0311736 0.989033 0.144366   
     length 1.98151   
     axis 0 0 0   XYZ
    dof rx ry rz
    limits (-20.0 45.0)
           (-30.0 30.0)
           (-30.0 30.0)
  end
  begin
     id 15 
     name upperneck
     direction 0.0421057 0.975772 -0.214698   
     length 2.01457   
     axis 0 0 0   XYZ
    dof rx ry rz
    limits (-20.0 45.0)
           (-30.0 30.0)
           (-30.0 30.0)
  end
  begin
     id 16
     name head
     direction 0.0136911 0.995958 -0.0887718  
     length 2.03562  
     axis 0 0 0   XYZ
    dof rx ry rz
    limits (-20.0 45.0)
           (-30.0 30.0)
           (-30.0 30.0)
  end
  begin
     id 17 
     name lclavicle
     direction 0.915335 0.396201 0.0720134  
     length 4.16217  
     axis 0 0 0   XYZ
    dof ry rz
    limits (-20.0 10.0)
           (0.0 20.0)
  end
  begin
     id 18 
     name lhumerus
     direction 1 -4.48965e-011 6.383e-018   
     length 4.93042   
     axis -180 -30 -90   XYZ
    dof rx ry rz
    limits (-60.0 90.0)
           (-90.0 90.0)
           (-90.0 90.0)
  end
  begin
     id 19
     name lradius
     direction 1 -4.48972e-011 8.8689e-027   
     length 3.68177   
     axis -180 -30 -90   XYZ
    dof rx
    limits (-10.0 170.0)
  end
  begin
     id 20
     name lwrist
     direction 1 -4.48953e-011 1.17971e-026   
     length 1.84089   
     axis -7.69454e-015 90 90   XYZ
    dof ry
    limits (-180.0 0.0)
 end
  begin
     id 21 
     name lhand
     direction 1 -4.49027e-011 2.35802e-026   
     length 0.721479   
     axis -1.50533e-014 90 90   XYZ
    dof rx rz
    limits (-90.0 90.0)
           (-45.0 45.0)
  end
  begin
     id 22 
     name lfingers
     direction 1 -4.48915e-011 4.72027e-026   
     length 0.581675   
     axis -3.01059e-014 90 90   XYZ
    dof rx
    limits (0.0 90.0)
  end
  begin
     id 23
     name lthumb
     direction 0.707107 -6.34948e-011 0.707107   
     length 0.835172   
     axis -90 45 -5.12164e-014   XYZ
    dof rx rz
    limits (-45.0 45.0)
           (-45.0 45.0)
  end
  begin
     id 24 
     name rclavicle
     direction -0.882781 0.469197 0.0234974   
     length 3.95647  
     axis 0 0 0   XYZ 
    dof ry rz
    limits (-10.0 20.0)
           (-20.0 0.0)
  end
  begin
     id 25 
     name rhumerus
     direction -1 -4.48965e-011 -1.54906e-018  
     length 5.07905   
     axis -180 30 90   XYZ
    dof rx ry rz
    limits (-90.0 60.0)
           (-90.0 90.0)
           (-90.0 90.0)
  end
  begin
     id 26 
     name rradius
     direction -1 -4.48972e-011 5.47489e-027   
     length 3.54394   
     axis -180 30 90   XYZ
    dof rx
    limits (-10.0 170.0)
  end
  begin
     id 27 
     name rwrist
     direction -1 -4.48955e-011 1.17969e-026   
     length 1.77197   
     axis -7.69454e-015 -90 -90   XYZ
    dof ry
    limits (-180.0 0.0)
  end
  begin
     id 28
     name rhand
     direction -1 -4.48982e-011 2.35888e-026   
     length 0.681156   
     axis -1.50533e-014 -90 -90   XYZ
    dof rx rz
    limits (-90.0 90.0)
           (-45.0 45.0)
  end
  begin
     id 29
     name rfingers
     direction -1 -4.48955e-011 4.71877e-026   
     length 0.549165   
     axis -3.01059e-014 -90 -90   XYZ
    dof rx
    limits (0.0 90.0)
  end
  begin
     id 30
     name rthumb
     direction -0.707107 -6.3491e-011 0.707107   
     length 0.788495   
     axis -90 -45 5.12164e-014   XYZ
    dof rx rz
    limits (-45.0 45.0)
           (-45.0 45.0)
  end
:hierarchy
  begin
    root lhipjoint rhipjoint lowerback
    lhipjoint lfemur
    lfemur ltibia
    ltibia lfoot
    lfoot ltoes
    rhipjoint rfemur
    rfemur rtibia
    rtibia rfoot
    rfoot rtoes
    lowerback upperback
    upperback thorax
    thorax lowerneck lclavicle rclavicle
    lowerneck upperneck
    upperneck head
    lclavicle lhumerus
    lhumerus lradius
    lradius lwrist
    lwrist lhand lthumb
    lhand lfingers
    rclavicle rhumerus
    rhumerus rradius
    rradius rwrist
    rwrist rhand rthumb
    rhand rfingers
  end

#!OML:ASF H:\Bending\Project 1\Capture day 1\Session 1\Subject.ASF
:FULLY-SPECIFIED
:DEGREES
126
root -11.9292 17.8803 -15.979 -141.967 82.9048 -185.897
lowerback 48.8688 -3.41071 2.31217
upperback 9.47705 -1.28262 -0.255552
thorax -9.83682 0.0278356 -0.912196
lowerneck -16.85 -4.45175 -5.17837
upperneck 6.3753 -5.1238 2.9461
head 4.83069 -2.45271 1.28706
rclavicle 5.1684e-014 3.59862e-014
rhumerus 48.9448 8.87235 -69.6968
rradius 28.8128
rwrist 0.541384
rhand -17.6273 -19.6955
rfingers 7.12502
rthumb 8.63005 -49.4991
lclavicle 5.1684e-014 3.59862e-014
lhumerus 54.5302 -15.3026 68.7705
lradius 28.8414
lwrist 38.6329
lhand -33.9213 17.5524
lfingers 7.12502
lthumb -7.10355 47.4131
rfemur -68.4904 -13.3528 27.376
rtibia 33.4467
rfoot -9.25855 -8.60629
rtoes 2.50648
lfemur -68.6313 0.838008 -8.99648
ltibia 33.8557
lfoot -8.93766 2.73345
ltoes -4.07602
127
root -11.9114 17.8879 -15.9763 -143.547 82.662 -187.671
lowerback 49.1924 -3.59681 2.49778
upperback 9.57173 -1.3704 -0.304406
thorax -9.78252 0.00311021 -1.01237
lowerneck -16.6519 -4.48319 -5.10156
upperneck 5.99814 -5.19085 2.98405
head 4.6831 -2.48215 1.28757
rclavicle 4.01545e-014 3.33275e-014
rhumerus 49.9668 8.35603 -70.0216
rradius 28.1485
rwrist 0.0718957
rhand -17.7207 -20.1413
rfingers 7.12502
rthumb 8.53986 -49.9486
lclavicle 4.01545e-014 3.33275e-014
lhumerus 55.2483 -15.1059 68.4399
lradius 29.0895
lwrist 39.3019
lhand -33.1436 17.6913
lfingers 7.12502
lthumb -6.35285 47.576
rfemur -68.6024 -13.4723 27.1573
rtibia 33.4704
rfoot -9.24099 -8.88235
rtoes 1.25551
lfemur -68.6844 0.349863 -8.80181
ltibia 33.5576
lfoot -8.95245 3.02193
ltoes -3.00983
128
root -11.8938 17.8961 -15.976 -145.256 82.3754 -189.562
lowerback 49.5178 -3.83169 2.73789
upperback 9.64347 -1.48797 -0.351432
thorax -9.75406 -0.0353062 -1.12245
lowerneck -16.482 -4.52628 -5.06805
upperneck 5.72039 -5.26718 3.04994
head 4.57362 -2.51585 1.30149
rclavicle -4.64162e-014 -1.60394e-014
rhumerus 50.8153 7.90561 -70.2666
rradius 27.5895
rwrist -0.439954
rhand -17.7956 -20.6397
rfingers 7.12502
rthumb 8.46759 -50.45
lclavicle -4.64162e-014 -1.60394e-014
lhumerus 55.8545 -15.0059 67.9751
lradius 29.4572
lwrist 40.024
lhand -32.4024 17.6833
lfingers 7.12502
lthumb -5.63727 47.5883
rfemur -68.6785 -13.6667 26.9278
rtibia 33.4542
rfoot -9.2572 -9.13902
rtoes 0.439932
lfemur -68.6929 -0.21478 -8.60036
ltibia 33.1824
lfoot -8.97065 3.35531
ltoes -2.12234
129
root -11.8771 17.9046 -15.9758 -146.741 82.0778 -191.224
lowerback 49.8311 -4.08612 2.99674
upperback 9.68853 -1.62135 -0.396644
thorax -9.75334 -0.0822359 -1.23159
lowerneck -16.38 -4.56589 -5.06478
upperneck 5.57275 -5.33317 3.13441
head 4.51656 -2.54397 1.32449
rclavicle 1.11319e-014 9.46091e-015
rhumerus 51.451 7.5495 -70.4041
rradius 27.1545
rwrist -0.768839
rhand -17.6888 -20.972
rfingers 7.12502
rthumb 8.57064 -50.778
lclavicle 1.11319e-014 9.46091e-015
lhumerus 56.3512 -14.9635 67.3953
lradius 29.8606
lwrist 40.6521
lhand -31.7169 17.5198
lfingers 7.12502
lthumb -4.97537 47.4414
rfemur -68.7302 -13.8743 26.7182
rtibia 33.3982
rfoot -9.29172 -9.37177
rtoes 0.191133
lfemur -68.6678 -0.761431 -8.40422
ltibia 32.7432
lfoot -8.9664 3.68679
ltoes -1.51741
130
root -11.8624 17.9136 -15.9733 -147.732 81.8126 -192.41
lowerback 50.0982 -4.30484 3.22046
upperback 9.70732 -1.7363 -0.430076
thorax -9.774 -0.124289 -1.3191
lowerneck -16.3566 -4.58991 -5.06589
upperneck 5.54878 -5.37544 3.21644
head 4.50961 -2.56028 1.34694
rclavicle 1.14301e-014 2.94201e-014
rhumerus 52.223 7.22191 -70.7201
rradius 26.413
rwrist -0.511743
rhand -17.2782 -20.911
rfingers 7.12502
rthumb 8.96692 -50.7004
lclavicle 1.14301e-014 2.94201e-014
lhumerus 56.7698 -14.9655 66.7341
lradius 30.1963
lwrist 41.0728
lhand -31.0865 17.236
lfingers 7.12502
lthumb -4.36671 47.1709
rfemur -68.78 -14.014 26.5446
rtibia 33.3021
rfoot -9.31842 -9.59254
rtoes 0.461715
lfemur -68.6345 -1.1976 -8.21769
ltibia 32.2619
lfoot -8.92046 3.97878
ltoes -1.21187
